<mxfile host="65bd71144e">
    <diagram id="prtHgNgQTEPvFCAcTncT" name="Page-1">
        <mxGraphModel dx="1972" dy="1236" grid="1" gridSize="10" guides="1" tooltips="1" connect="1" arrows="1" fold="1" page="1" pageScale="1" pageWidth="1169" pageHeight="1654" background="#ffffff" math="0" shadow="0">
            <root>
                <mxCell id="0"/>
                <mxCell id="1" parent="0"/>
                <mxCell id="5" style="edgeStyle=orthogonalEdgeStyle;rounded=0;orthogonalLoop=1;jettySize=auto;html=1;entryX=0;entryY=0.5;entryDx=0;entryDy=0;exitX=0.5;exitY=1;exitDx=0;exitDy=0;" parent="1" edge="1">
                    <mxGeometry relative="1" as="geometry">
                        <mxPoint x="110" y="1295" as="sourcePoint"/>
                    </mxGeometry>
                </mxCell>
                <mxCell id="8" style="edgeStyle=orthogonalEdgeStyle;rounded=0;orthogonalLoop=1;jettySize=auto;html=1;" parent="1" edge="1">
                    <mxGeometry relative="1" as="geometry">
                        <mxPoint x="220" y="1520" as="sourcePoint"/>
                    </mxGeometry>
                </mxCell>
                <mxCell id="9" value="No" style="edgeLabel;html=1;align=center;verticalAlign=middle;resizable=0;points=[];" parent="8" vertex="1" connectable="0">
                    <mxGeometry x="-0.0263" relative="1" as="geometry">
                        <mxPoint as="offset"/>
                    </mxGeometry>
                </mxCell>
                <mxCell id="43" value="No" style="edgeStyle=orthogonalEdgeStyle;rounded=0;orthogonalLoop=1;jettySize=auto;html=1;entryX=0.5;entryY=0;entryDx=0;entryDy=0;" parent="1" edge="1">
                    <mxGeometry relative="1" as="geometry">
                        <mxPoint x="235" y="885" as="sourcePoint"/>
                    </mxGeometry>
                </mxCell>
                <mxCell id="51" style="edgeStyle=orthogonalEdgeStyle;rounded=0;orthogonalLoop=1;jettySize=auto;html=1;entryX=0;entryY=0.5;entryDx=0;entryDy=0;" parent="1" edge="1">
                    <mxGeometry relative="1" as="geometry">
                        <mxPoint x="150" y="1020" as="sourcePoint"/>
                    </mxGeometry>
                </mxCell>
                <mxCell id="52" value="Yes" style="edgeLabel;html=1;align=center;verticalAlign=middle;resizable=0;points=[];" parent="51" vertex="1" connectable="0">
                    <mxGeometry x="-0.2708" y="-2" relative="1" as="geometry">
                        <mxPoint as="offset"/>
                    </mxGeometry>
                </mxCell>
                <mxCell id="54" style="edgeStyle=orthogonalEdgeStyle;rounded=0;orthogonalLoop=1;jettySize=auto;html=1;entryX=0.5;entryY=0;entryDx=0;entryDy=0;" parent="1" edge="1">
                    <mxGeometry relative="1" as="geometry">
                        <mxPoint x="299.9999999999998" y="1294.87" as="sourcePoint"/>
                    </mxGeometry>
                </mxCell>
                <mxCell id="56" value="Yes" style="edgeStyle=orthogonalEdgeStyle;rounded=0;orthogonalLoop=1;jettySize=auto;html=1;entryX=0.75;entryY=0;entryDx=0;entryDy=0;exitX=0.5;exitY=1;exitDx=0;exitDy=0;" parent="1" edge="1">
                    <mxGeometry x="0.1632" relative="1" as="geometry">
                        <Array as="points">
                            <mxPoint x="239.99999999999997" y="1180"/>
                            <mxPoint x="139.99999999999997" y="1180"/>
                        </Array>
                        <mxPoint as="offset"/>
                        <mxPoint x="241.47000000000003" y="1053.2500000000002" as="sourcePoint"/>
                    </mxGeometry>
                </mxCell>
                <mxCell id="57" style="edgeStyle=orthogonalEdgeStyle;rounded=0;orthogonalLoop=1;jettySize=auto;html=1;entryX=0.5;entryY=0;entryDx=0;entryDy=0;" parent="1" edge="1">
                    <mxGeometry relative="1" as="geometry">
                        <Array as="points">
                            <mxPoint x="350" y="1020"/>
                            <mxPoint x="350" y="1180"/>
                            <mxPoint x="300" y="1180"/>
                        </Array>
                        <mxPoint x="281.40138936535186" y="1020.181818181818" as="sourcePoint"/>
                    </mxGeometry>
                </mxCell>
                <mxCell id="58" value="No" style="edgeLabel;html=1;align=center;verticalAlign=middle;resizable=0;points=[];" parent="57" vertex="1" connectable="0">
                    <mxGeometry x="-0.304" y="1" relative="1" as="geometry">
                        <mxPoint x="-21" y="106.37" as="offset"/>
                    </mxGeometry>
                </mxCell>
                <mxCell id="60" style="edgeStyle=orthogonalEdgeStyle;rounded=0;orthogonalLoop=1;jettySize=auto;html=1;entryX=0.5;entryY=0;entryDx=0;entryDy=0;" parent="1" edge="1">
                    <mxGeometry relative="1" as="geometry">
                        <mxPoint x="280" y="810" as="sourcePoint"/>
                    </mxGeometry>
                </mxCell>
                <mxCell id="dNxyNK7c78bLwvsdeMH5-19" value="Pool" style="swimlane;html=1;childLayout=stackLayout;resizeParent=1;resizeParentMax=0;horizontal=0;startSize=20;horizontalStack=0;whiteSpace=wrap;" parent="1" vertex="1">
                    <mxGeometry x="15" y="40" width="1140" height="1350" as="geometry"/>
                </mxCell>
                <mxCell id="88" value="Yes" style="edgeStyle=none;html=1;entryX=0.5;entryY=0;entryDx=0;entryDy=0;" parent="dNxyNK7c78bLwvsdeMH5-19" source="62" target="86" edge="1">
                    <mxGeometry x="-0.1429" relative="1" as="geometry">
                        <mxPoint as="offset"/>
                    </mxGeometry>
                </mxCell>
                <mxCell id="112" style="edgeStyle=orthogonalEdgeStyle;html=1;entryX=0.5;entryY=1;entryDx=0;entryDy=0;" parent="dNxyNK7c78bLwvsdeMH5-19" source="110" target="dNxyNK7c78bLwvsdeMH5-32" edge="1">
                    <mxGeometry relative="1" as="geometry">
                        <Array as="points">
                            <mxPoint x="940" y="450"/>
                        </Array>
                    </mxGeometry>
                </mxCell>
                <mxCell id="113" value="Yes" style="edgeLabel;html=1;align=center;verticalAlign=middle;resizable=0;points=[];" parent="112" vertex="1" connectable="0">
                    <mxGeometry x="-0.6665" relative="1" as="geometry">
                        <mxPoint as="offset"/>
                    </mxGeometry>
                </mxCell>
                <mxCell id="dNxyNK7c78bLwvsdeMH5-20" value="&lt;br&gt;" style="swimlane;html=1;startSize=20;horizontal=0;" parent="dNxyNK7c78bLwvsdeMH5-19" vertex="1">
                    <mxGeometry x="20" width="1120" height="330" as="geometry"/>
                </mxCell>
                <mxCell id="67" style="edgeStyle=none;html=1;entryX=0;entryY=0.5;entryDx=0;entryDy=0;" parent="dNxyNK7c78bLwvsdeMH5-20" source="dNxyNK7c78bLwvsdeMH5-23" target="62" edge="1">
                    <mxGeometry relative="1" as="geometry"/>
                </mxCell>
                <mxCell id="dNxyNK7c78bLwvsdeMH5-23" value="&lt;span&gt;开始同步&lt;/span&gt;" style="ellipse;whiteSpace=wrap;html=1;" parent="dNxyNK7c78bLwvsdeMH5-20" vertex="1">
                    <mxGeometry x="20" y="71.05" width="60" height="60" as="geometry"/>
                </mxCell>
                <mxCell id="dNxyNK7c78bLwvsdeMH5-32" value="&lt;span&gt;同步结束&lt;/span&gt;" style="ellipse;whiteSpace=wrap;html=1;" parent="dNxyNK7c78bLwvsdeMH5-20" vertex="1">
                    <mxGeometry x="890" y="55" width="60" height="60" as="geometry"/>
                </mxCell>
                <mxCell id="70" value="No" style="edgeStyle=none;html=1;entryX=0;entryY=0.5;entryDx=0;entryDy=0;" parent="dNxyNK7c78bLwvsdeMH5-20" source="62" target="68" edge="1">
                    <mxGeometry relative="1" as="geometry"/>
                </mxCell>
                <mxCell id="62" value="从checkpoint开始执行" style="rhombus;whiteSpace=wrap;html=1;" parent="dNxyNK7c78bLwvsdeMH5-20" vertex="1">
                    <mxGeometry x="130" y="68.55" width="90" height="65" as="geometry"/>
                </mxCell>
                <mxCell id="185" value="增量预处理" style="edgeStyle=none;html=1;entryX=0;entryY=0.5;entryDx=0;entryDy=0;fontSize=12;" parent="dNxyNK7c78bLwvsdeMH5-20" source="68" target="166" edge="1">
                    <mxGeometry relative="1" as="geometry"/>
                </mxCell>
                <mxCell id="205" style="edgeStyle=none;html=1;entryX=0.5;entryY=0;entryDx=0;entryDy=0;fontSize=12;" parent="dNxyNK7c78bLwvsdeMH5-20" source="68" target="96" edge="1">
                    <mxGeometry relative="1" as="geometry">
                        <Array as="points">
                            <mxPoint x="385" y="205"/>
                            <mxPoint x="510" y="205"/>
                        </Array>
                    </mxGeometry>
                </mxCell>
                <mxCell id="68" value="持续同步" style="rhombus;whiteSpace=wrap;html=1;" parent="dNxyNK7c78bLwvsdeMH5-20" vertex="1">
                    <mxGeometry x="340" y="68.55" width="90" height="65" as="geometry"/>
                </mxCell>
                <mxCell id="204" style="edgeStyle=none;html=1;fontSize=12;" parent="dNxyNK7c78bLwvsdeMH5-20" source="96" target="104" edge="1">
                    <mxGeometry relative="1" as="geometry"/>
                </mxCell>
                <mxCell id="96" value="生成对象列表文件" style="rounded=1;whiteSpace=wrap;html=1;" parent="dNxyNK7c78bLwvsdeMH5-20" vertex="1">
                    <mxGeometry x="450" y="240" width="120" height="60" as="geometry"/>
                </mxCell>
                <mxCell id="203" style="edgeStyle=none;html=1;entryX=0.5;entryY=0;entryDx=0;entryDy=0;fontSize=12;exitX=0.5;exitY=1;exitDx=0;exitDy=0;" parent="dNxyNK7c78bLwvsdeMH5-20" source="166" target="96" edge="1">
                    <mxGeometry relative="1" as="geometry">
                        <Array as="points">
                            <mxPoint x="735" y="205"/>
                            <mxPoint x="510" y="205"/>
                        </Array>
                    </mxGeometry>
                </mxCell>
                <mxCell id="166" value="" style="rounded=1;whiteSpace=wrap;html=1;shadow=0;glass=0;sketch=0;strokeColor=default;fontSize=12;" parent="dNxyNK7c78bLwvsdeMH5-20" vertex="1">
                    <mxGeometry x="640" y="26.05" width="190" height="150" as="geometry"/>
                </mxCell>
                <mxCell id="167" value="&lt;h1 style=&quot;line-height: 0%;&quot;&gt;&lt;font style=&quot;font-size: 12px;&quot;&gt;源为本地&lt;/font&gt;&lt;/h1&gt;&lt;p style=&quot;font-size: 15px; line-height: 0%;&quot;&gt;&lt;span style=&quot;font-size: 12px;&quot;&gt;启动本地目录nodify线程&lt;/span&gt;&lt;/p&gt;&lt;p style=&quot;font-size: 15px;&quot;&gt;&lt;span style=&quot;font-size: 12px;&quot;&gt;记录增量列表文件路径&lt;/span&gt;&lt;br&gt;&lt;/p&gt;" style="text;html=1;spacing=5;spacingTop=-20;whiteSpace=wrap;overflow=hidden;rounded=1;strokeColor=default;glass=0;shadow=0;align=center;" parent="dNxyNK7c78bLwvsdeMH5-20" vertex="1">
                    <mxGeometry x="647.5" y="36.05" width="175" height="60" as="geometry"/>
                </mxCell>
                <mxCell id="184" value="&lt;h1 style=&quot;line-height: 0%;&quot;&gt;&lt;font style=&quot;font-size: 12px;&quot;&gt;源为OSS&lt;/font&gt;&lt;/h1&gt;&lt;p style=&quot;&quot;&gt;记录当前时间戳&lt;/p&gt;" style="text;html=1;spacing=5;spacingTop=-20;whiteSpace=wrap;overflow=hidden;rounded=1;strokeColor=default;glass=0;shadow=0;align=center;" parent="dNxyNK7c78bLwvsdeMH5-20" vertex="1">
                    <mxGeometry x="647.5" y="106.05" width="175" height="60" as="geometry"/>
                </mxCell>
                <mxCell id="104" value="文件生成成功" style="rhombus;whiteSpace=wrap;html=1;" parent="dNxyNK7c78bLwvsdeMH5-20" vertex="1">
                    <mxGeometry x="680" y="235" width="90" height="65" as="geometry"/>
                </mxCell>
                <mxCell id="108" style="edgeStyle=orthogonalEdgeStyle;html=1;entryX=0.5;entryY=1;entryDx=0;entryDy=0;" parent="dNxyNK7c78bLwvsdeMH5-20" source="104" target="dNxyNK7c78bLwvsdeMH5-32" edge="1">
                    <mxGeometry relative="1" as="geometry"/>
                </mxCell>
                <mxCell id="109" value="No" style="edgeLabel;html=1;align=center;verticalAlign=middle;resizable=0;points=[];" parent="108" vertex="1" connectable="0">
                    <mxGeometry x="-0.5063" y="-1" relative="1" as="geometry">
                        <mxPoint as="offset"/>
                    </mxGeometry>
                </mxCell>
                <mxCell id="106" value="Yes" style="edgeStyle=orthogonalEdgeStyle;html=1;entryX=0.5;entryY=0;entryDx=0;entryDy=0;" parent="dNxyNK7c78bLwvsdeMH5-19" source="104" target="91" edge="1">
                    <mxGeometry relative="1" as="geometry">
                        <Array as="points">
                            <mxPoint x="745" y="355"/>
                            <mxPoint x="590" y="355"/>
                        </Array>
                    </mxGeometry>
                </mxCell>
                <mxCell id="dNxyNK7c78bLwvsdeMH5-21" value="预处理及辅助流程" style="swimlane;html=1;startSize=20;horizontal=0;" parent="dNxyNK7c78bLwvsdeMH5-19" vertex="1">
                    <mxGeometry x="20" y="330" width="1120" height="1020" as="geometry"/>
                </mxCell>
                <mxCell id="94" style="edgeStyle=none;html=1;entryX=0;entryY=0.5;entryDx=0;entryDy=0;" parent="dNxyNK7c78bLwvsdeMH5-21" source="72" target="91" edge="1">
                    <mxGeometry relative="1" as="geometry"/>
                </mxCell>
                <mxCell id="72" value="&lt;span&gt;根据checkpoint定位文件offset&lt;/span&gt;" style="rounded=1;whiteSpace=wrap;html=1;" parent="dNxyNK7c78bLwvsdeMH5-21" vertex="1">
                    <mxGeometry x="320" y="42.5" width="120" height="60" as="geometry"/>
                </mxCell>
                <mxCell id="93" style="edgeStyle=none;html=1;" parent="dNxyNK7c78bLwvsdeMH5-21" source="86" target="72" edge="1">
                    <mxGeometry relative="1" as="geometry"/>
                </mxCell>
                <mxCell id="86" value="&lt;span&gt;处理错误记录&lt;/span&gt;" style="rounded=1;whiteSpace=wrap;html=1;" parent="dNxyNK7c78bLwvsdeMH5-21" vertex="1">
                    <mxGeometry x="115" y="42.5" width="120" height="60" as="geometry"/>
                </mxCell>
                <mxCell id="95" style="edgeStyle=none;html=1;entryX=0;entryY=0.5;entryDx=0;entryDy=0;" parent="dNxyNK7c78bLwvsdeMH5-21" source="91" edge="1">
                    <mxGeometry relative="1" as="geometry">
                        <mxPoint x="690" y="72.5" as="targetPoint"/>
                    </mxGeometry>
                </mxCell>
                <mxCell id="207" style="edgeStyle=none;html=1;entryX=0.5;entryY=0;entryDx=0;entryDy=0;fontSize=12;exitX=0.5;exitY=1;exitDx=0;exitDy=0;" parent="dNxyNK7c78bLwvsdeMH5-21" source="91" target="157" edge="1">
                    <mxGeometry relative="1" as="geometry">
                        <Array as="points">
                            <mxPoint x="570" y="120"/>
                            <mxPoint x="230" y="120"/>
                        </Array>
                    </mxGeometry>
                </mxCell>
                <mxCell id="91" value="启动任务状态监听器" style="rounded=1;whiteSpace=wrap;html=1;" parent="dNxyNK7c78bLwvsdeMH5-21" vertex="1">
                    <mxGeometry x="510" y="42.5" width="120" height="60" as="geometry"/>
                </mxCell>
                <mxCell id="dNxyNK7c78bLwvsdeMH5-22" value="" style="swimlane;html=1;startSize=20;horizontal=0;" parent="dNxyNK7c78bLwvsdeMH5-21" vertex="1">
                    <mxGeometry y="140" width="1120" height="880" as="geometry"/>
                </mxCell>
                <mxCell id="288" style="edgeStyle=none;html=1;fontSize=14;exitX=1;exitY=0.25;exitDx=0;exitDy=0;entryX=0;entryY=0.495;entryDx=0;entryDy=0;entryPerimeter=0;" parent="dNxyNK7c78bLwvsdeMH5-22" source="209" target="158" edge="1">
                    <mxGeometry relative="1" as="geometry"/>
                </mxCell>
                <mxCell id="157" value="&lt;h1 style=&quot;font-size: 15px;&quot;&gt;&lt;font style=&quot;font-size: 15px;&quot;&gt;存量同步&lt;/font&gt;&lt;/h1&gt;&lt;p style=&quot;font-size: 15px;&quot;&gt;&lt;br&gt;&lt;/p&gt;" style="text;html=1;spacing=5;spacingTop=-20;whiteSpace=wrap;overflow=hidden;rounded=1;strokeColor=default;glass=0;shadow=0;align=center;" parent="dNxyNK7c78bLwvsdeMH5-22" vertex="1">
                    <mxGeometry x="50" y="22.5" width="360" height="847.5" as="geometry"/>
                </mxCell>
                <mxCell id="158" value="&lt;h1 style=&quot;font-size: 15px;&quot;&gt;&lt;font style=&quot;font-size: 15px;&quot;&gt;增量同步&lt;/font&gt;&lt;/h1&gt;&lt;p style=&quot;font-size: 15px;&quot;&gt;&lt;br&gt;&lt;/p&gt;" style="text;html=1;spacing=5;spacingTop=-20;whiteSpace=wrap;overflow=hidden;rounded=1;strokeColor=default;glass=0;shadow=0;align=center;" parent="dNxyNK7c78bLwvsdeMH5-22" vertex="1">
                    <mxGeometry x="490" y="22.5" width="610" height="687.5" as="geometry"/>
                </mxCell>
                <mxCell id="208" value="遍历对象列表按批次生成多线程同步任务" style="rounded=1;whiteSpace=wrap;html=1;" parent="dNxyNK7c78bLwvsdeMH5-22" vertex="1">
                    <mxGeometry x="170" y="40" width="120" height="40" as="geometry"/>
                </mxCell>
                <mxCell id="255" value="No" style="edgeStyle=none;html=1;entryX=0.5;entryY=0;entryDx=0;entryDy=0;fontSize=12;" parent="dNxyNK7c78bLwvsdeMH5-22" source="247" target="209" edge="1">
                    <mxGeometry relative="1" as="geometry"/>
                </mxCell>
                <mxCell id="254" value="" style="group" parent="dNxyNK7c78bLwvsdeMH5-22" vertex="1" connectable="0">
                    <mxGeometry x="50" y="200" width="360" height="650" as="geometry"/>
                </mxCell>
                <mxCell id="206" value="生成错误记录文件" style="rounded=1;whiteSpace=wrap;html=1;shadow=0;glass=0;sketch=0;strokeColor=default;fontSize=12;fillColor=default;container=0;" parent="254" vertex="1">
                    <mxGeometry x="120" y="20" width="120" height="30" as="geometry"/>
                </mxCell>
                <mxCell id="238" value="错误数为零" style="rhombus;whiteSpace=wrap;html=1;container=0;" parent="254" vertex="1">
                    <mxGeometry x="135" y="530" width="90" height="65" as="geometry"/>
                </mxCell>
                <mxCell id="239" style="edgeStyle=none;html=1;entryX=0.5;entryY=0;entryDx=0;entryDy=0;fontSize=12;" parent="254" source="238" target="237" edge="1">
                    <mxGeometry relative="1" as="geometry"/>
                </mxCell>
                <mxCell id="237" value="删除错误记录文件" style="rounded=1;whiteSpace=wrap;html=1;shadow=0;glass=0;sketch=0;strokeColor=default;fontSize=12;fillColor=default;container=0;" parent="254" vertex="1">
                    <mxGeometry x="120" y="610" width="120" height="30" as="geometry"/>
                </mxCell>
                <mxCell id="210" value="&lt;h1 style=&quot;&quot;&gt;&lt;font style=&quot;font-size: 12px;&quot;&gt;文件同步操作&lt;/font&gt;&lt;/h1&gt;&lt;p style=&quot;&quot;&gt;&lt;br&gt;&lt;/p&gt;" style="text;html=1;spacing=5;spacingTop=-20;whiteSpace=wrap;overflow=hidden;rounded=1;strokeColor=default;glass=0;shadow=0;align=center;container=0;movable=1;resizable=1;rotatable=1;deletable=1;editable=1;connectable=1;" parent="254" vertex="1">
                    <mxGeometry x="10" y="60" width="341" height="460" as="geometry"/>
                </mxCell>
                <mxCell id="153" value="记录执行文件位置信息" style="rounded=1;whiteSpace=wrap;html=1;container=0;movable=1;resizable=1;rotatable=1;deletable=1;editable=1;connectable=1;" parent="254" vertex="1">
                    <mxGeometry x="38" y="410" width="120" height="60" as="geometry"/>
                </mxCell>
                <mxCell id="147" value="&lt;span style=&quot;border-color: var(--border-color); font-family: menlo, &amp;quot;jetbrains mono&amp;quot;, &amp;quot;courier new&amp;quot;, monospace, menlo, monaco, &amp;quot;courier new&amp;quot;, monospace;&quot;&gt;multipart_upload方式上传文件&lt;/span&gt;" style="rounded=1;whiteSpace=wrap;html=1;container=0;movable=1;resizable=1;rotatable=1;deletable=1;editable=1;connectable=1;" parent="254" vertex="1">
                    <mxGeometry x="223.5" y="173.75" width="120" height="60" as="geometry"/>
                </mxCell>
                <mxCell id="226" style="edgeStyle=none;html=1;entryX=0.5;entryY=0;entryDx=0;entryDy=0;fontSize=12;exitX=1;exitY=0.5;exitDx=0;exitDy=0;movable=1;resizable=1;rotatable=1;deletable=1;editable=1;connectable=1;" parent="254" source="143" target="147" edge="1">
                    <mxGeometry relative="1" as="geometry">
                        <Array as="points">
                            <mxPoint x="284" y="124"/>
                        </Array>
                    </mxGeometry>
                </mxCell>
                <mxCell id="227" value="Yes" style="edgeLabel;html=1;align=center;verticalAlign=middle;resizable=1;points=[];fontSize=12;container=0;movable=1;rotatable=1;deletable=1;editable=1;connectable=1;" parent="226" vertex="1" connectable="0">
                    <mxGeometry x="-0.3649" y="-1" relative="1" as="geometry">
                        <mxPoint as="offset"/>
                    </mxGeometry>
                </mxCell>
                <mxCell id="143" value="文件大小超过large size阀值" style="rhombus;whiteSpace=wrap;html=1;container=0;movable=1;resizable=1;rotatable=1;deletable=1;editable=1;connectable=1;" parent="254" vertex="1">
                    <mxGeometry x="133.5" y="91" width="90" height="65" as="geometry"/>
                </mxCell>
                <mxCell id="145" value="传输文件" style="rounded=1;whiteSpace=wrap;html=1;container=0;movable=1;resizable=1;rotatable=1;deletable=1;editable=1;connectable=1;" parent="254" vertex="1">
                    <mxGeometry x="18" y="173.75" width="120" height="60" as="geometry"/>
                </mxCell>
                <mxCell id="229" style="edgeStyle=none;html=1;entryX=0.429;entryY=0.004;entryDx=0;entryDy=0;entryPerimeter=0;fontSize=12;movable=1;resizable=1;rotatable=1;deletable=1;editable=1;connectable=1;" parent="254" source="143" target="145" edge="1">
                    <mxGeometry relative="1" as="geometry">
                        <Array as="points">
                            <mxPoint x="69" y="124"/>
                        </Array>
                    </mxGeometry>
                </mxCell>
                <mxCell id="230" value="No" style="edgeLabel;html=1;align=center;verticalAlign=middle;resizable=1;points=[];fontSize=12;container=0;movable=1;rotatable=1;deletable=1;editable=1;connectable=1;" parent="229" vertex="1" connectable="0">
                    <mxGeometry x="-0.2107" y="3" relative="1" as="geometry">
                        <mxPoint as="offset"/>
                    </mxGeometry>
                </mxCell>
                <mxCell id="234" value="Yes" style="edgeStyle=none;html=1;entryX=0.5;entryY=0;entryDx=0;entryDy=0;fontSize=12;exitX=0;exitY=0.5;exitDx=0;exitDy=0;movable=1;resizable=1;rotatable=1;deletable=1;editable=1;connectable=1;" parent="254" source="150" target="153" edge="1">
                    <mxGeometry x="0.3311" relative="1" as="geometry">
                        <Array as="points">
                            <mxPoint x="98" y="313"/>
                        </Array>
                        <mxPoint as="offset"/>
                    </mxGeometry>
                </mxCell>
                <mxCell id="150" value="上传文件成功" style="rhombus;whiteSpace=wrap;html=1;container=0;movable=1;resizable=1;rotatable=1;deletable=1;editable=1;connectable=1;" parent="254" vertex="1">
                    <mxGeometry x="133.5" y="280" width="90" height="65" as="geometry"/>
                </mxCell>
                <mxCell id="233" style="edgeStyle=none;html=1;entryX=0.5;entryY=0;entryDx=0;entryDy=0;fontSize=12;movable=1;resizable=1;rotatable=1;deletable=1;editable=1;connectable=1;" parent="254" source="147" target="150" edge="1">
                    <mxGeometry relative="1" as="geometry">
                        <Array as="points">
                            <mxPoint x="284" y="260"/>
                            <mxPoint x="179" y="260"/>
                        </Array>
                    </mxGeometry>
                </mxCell>
                <mxCell id="232" style="edgeStyle=none;html=1;entryX=0.5;entryY=0;entryDx=0;entryDy=0;fontSize=12;movable=1;resizable=1;rotatable=1;deletable=1;editable=1;connectable=1;" parent="254" source="145" target="150" edge="1">
                    <mxGeometry relative="1" as="geometry">
                        <Array as="points">
                            <mxPoint x="78" y="260"/>
                            <mxPoint x="178" y="260"/>
                        </Array>
                    </mxGeometry>
                </mxCell>
                <mxCell id="236" style="edgeStyle=none;html=1;entryX=0.5;entryY=1;entryDx=0;entryDy=0;fontSize=12;exitX=0.5;exitY=1;exitDx=0;exitDy=0;movable=1;resizable=1;rotatable=1;deletable=1;editable=1;connectable=1;" parent="254" source="152" target="153" edge="1">
                    <mxGeometry relative="1" as="geometry">
                        <Array as="points">
                            <mxPoint x="258" y="500"/>
                            <mxPoint x="98" y="500"/>
                        </Array>
                    </mxGeometry>
                </mxCell>
                <mxCell id="152" value="追加错误记录文件&lt;br&gt;增加同步错误数" style="rounded=1;whiteSpace=wrap;html=1;container=0;movable=1;resizable=1;rotatable=1;deletable=1;editable=1;connectable=1;" parent="254" vertex="1">
                    <mxGeometry x="198" y="410" width="120" height="60" as="geometry"/>
                </mxCell>
                <mxCell id="235" value="No" style="edgeStyle=none;html=1;entryX=0.5;entryY=0;entryDx=0;entryDy=0;fontSize=12;exitX=1;exitY=0.5;exitDx=0;exitDy=0;movable=1;resizable=1;rotatable=1;deletable=1;editable=1;connectable=1;" parent="254" source="150" target="152" edge="1">
                    <mxGeometry x="0.3909" relative="1" as="geometry">
                        <Array as="points">
                            <mxPoint x="258" y="313"/>
                        </Array>
                        <mxPoint as="offset"/>
                    </mxGeometry>
                </mxCell>
                <mxCell id="209" value="&lt;h1 style=&quot;font-size: 15px;&quot;&gt;任务执行器&lt;/h1&gt;&lt;p style=&quot;font-size: 15px;&quot;&gt;&lt;br&gt;&lt;/p&gt;" style="text;html=1;spacing=5;spacingTop=-20;whiteSpace=wrap;overflow=hidden;rounded=1;strokeColor=default;glass=0;shadow=0;align=center;container=0;" parent="dNxyNK7c78bLwvsdeMH5-22" vertex="1">
                    <mxGeometry x="49.5" y="200" width="360" height="650" as="geometry"/>
                </mxCell>
                <mxCell id="247" value="错误数到达上限" style="rhombus;whiteSpace=wrap;html=1;" parent="dNxyNK7c78bLwvsdeMH5-22" vertex="1">
                    <mxGeometry x="184.5" y="84" width="90" height="65" as="geometry"/>
                </mxCell>
                <mxCell id="286" value="" style="group" parent="dNxyNK7c78bLwvsdeMH5-22" vertex="1" connectable="0">
                    <mxGeometry x="750" y="131.25" width="340" height="470" as="geometry"/>
                </mxCell>
                <mxCell id="271" value="&lt;h1 style=&quot;font-size: 15px;&quot;&gt;&lt;font style=&quot;font-size: 15px;&quot;&gt;源为OSS&lt;/font&gt;&lt;/h1&gt;&lt;p style=&quot;font-size: 15px;&quot;&gt;&lt;br&gt;&lt;/p&gt;" style="text;html=1;spacing=5;spacingTop=-20;whiteSpace=wrap;overflow=hidden;rounded=1;strokeColor=default;glass=0;shadow=0;align=center;container=0;" parent="286" vertex="1">
                    <mxGeometry width="340" height="470" as="geometry"/>
                </mxCell>
                <mxCell id="273" value="根据已执行的文件列表确定删除的文件" style="rounded=1;whiteSpace=wrap;html=1;shadow=0;glass=0;sketch=0;strokeColor=default;fontSize=12;fillColor=default;flipV=0;container=0;" parent="286" vertex="1">
                    <mxGeometry x="10" y="113" width="120" height="60" as="geometry"/>
                </mxCell>
                <mxCell id="275" value="生成变更列表和当前文件列表" style="rounded=1;whiteSpace=wrap;html=1;shadow=0;glass=0;sketch=0;strokeColor=default;fontSize=12;fillColor=default;flipV=0;container=0;" parent="286" vertex="1">
                    <mxGeometry x="100" y="268" width="120" height="60" as="geometry"/>
                </mxCell>
                <mxCell id="276" style="edgeStyle=none;html=1;fontSize=12;" parent="286" source="273" target="275" edge="1">
                    <mxGeometry relative="1" as="geometry">
                        <Array as="points">
                            <mxPoint x="70" y="200"/>
                            <mxPoint x="160" y="200"/>
                        </Array>
                    </mxGeometry>
                </mxCell>
                <mxCell id="278" value="根据执行列表执行变更文件操作" style="rounded=1;whiteSpace=wrap;html=1;shadow=0;glass=0;sketch=0;strokeColor=default;fontSize=12;fillColor=default;flipV=0;container=0;" parent="286" vertex="1">
                    <mxGeometry x="100" y="360" width="120" height="60" as="geometry"/>
                </mxCell>
                <mxCell id="279" style="edgeStyle=none;html=1;fontSize=12;" parent="286" source="275" target="278" edge="1">
                    <mxGeometry relative="1" as="geometry"/>
                </mxCell>
                <mxCell id="281" style="edgeStyle=none;html=1;entryX=0.5;entryY=0;entryDx=0;entryDy=0;fontSize=14;exitX=0.5;exitY=1;exitDx=0;exitDy=0;" parent="286" source="280" target="275" edge="1">
                    <mxGeometry relative="1" as="geometry">
                        <Array as="points">
                            <mxPoint x="250" y="200"/>
                            <mxPoint x="160" y="200"/>
                        </Array>
                    </mxGeometry>
                </mxCell>
                <mxCell id="282" value="Merge" style="edgeLabel;html=1;align=center;verticalAlign=middle;resizable=0;points=[];fontSize=14;" parent="281" vertex="1" connectable="0">
                    <mxGeometry x="0.6271" y="1" relative="1" as="geometry">
                        <mxPoint as="offset"/>
                    </mxGeometry>
                </mxCell>
                <mxCell id="280" value="根据增量预处理记录的时间戳确定新增文件" style="rounded=1;whiteSpace=wrap;html=1;shadow=0;glass=0;sketch=0;strokeColor=default;fontSize=12;fillColor=default;flipV=0;container=0;" parent="286" vertex="1">
                    <mxGeometry x="191" y="113" width="120" height="60" as="geometry"/>
                </mxCell>
                <mxCell id="283" value="记录时间戳" style="rounded=1;whiteSpace=wrap;html=1;shadow=0;glass=0;sketch=0;strokeColor=default;fontSize=14;fillColor=default;" parent="286" vertex="1">
                    <mxGeometry x="100" y="50" width="120" height="30" as="geometry"/>
                </mxCell>
                <mxCell id="285" style="edgeStyle=none;html=1;entryX=1;entryY=0.5;entryDx=0;entryDy=0;fontSize=14;exitX=0.5;exitY=1;exitDx=0;exitDy=0;" parent="286" source="278" target="283" edge="1">
                    <mxGeometry relative="1" as="geometry">
                        <Array as="points">
                            <mxPoint x="160" y="460"/>
                            <mxPoint x="320" y="460"/>
                            <mxPoint x="320" y="65"/>
                        </Array>
                    </mxGeometry>
                </mxCell>
                <mxCell id="268" value="" style="group" parent="dNxyNK7c78bLwvsdeMH5-22" vertex="1" connectable="0">
                    <mxGeometry x="500" y="131.25" width="230" height="370" as="geometry"/>
                </mxCell>
                <mxCell id="257" value="&lt;h1 style=&quot;font-size: 15px;&quot;&gt;&lt;font style=&quot;font-size: 15px;&quot;&gt;源为本地&lt;/font&gt;&lt;/h1&gt;&lt;p style=&quot;font-size: 15px;&quot;&gt;&lt;br&gt;&lt;/p&gt;" style="text;html=1;spacing=5;spacingTop=-20;whiteSpace=wrap;overflow=hidden;rounded=1;strokeColor=default;glass=0;shadow=0;align=center;" parent="268" vertex="1">
                    <mxGeometry width="230" height="370" as="geometry"/>
                </mxCell>
                <mxCell id="258" value="Notify 文件长度大于执行offset" style="rhombus;whiteSpace=wrap;html=1;rounded=1;shadow=0;glass=0;sketch=0;strokeColor=default;fontSize=12;fillColor=default;" parent="268" vertex="1">
                    <mxGeometry x="55" y="30" width="110" height="50" as="geometry"/>
                </mxCell>
                <mxCell id="259" value="从offset 遍历到Notify文件尾生产执行列表" style="rounded=1;whiteSpace=wrap;html=1;shadow=0;glass=0;sketch=0;strokeColor=default;fontSize=12;fillColor=default;flipV=0;" parent="268" vertex="1">
                    <mxGeometry x="50" y="113" width="120" height="60" as="geometry"/>
                </mxCell>
                <mxCell id="263" style="edgeStyle=none;html=1;entryX=0.5;entryY=0;entryDx=0;entryDy=0;fontSize=12;" parent="268" source="258" target="259" edge="1">
                    <mxGeometry relative="1" as="geometry"/>
                </mxCell>
                <mxCell id="260" value="从offset 遍历到Notify文件尾生产执行列表" style="rounded=1;whiteSpace=wrap;html=1;shadow=0;glass=0;sketch=0;strokeColor=default;fontSize=12;fillColor=default;flipV=0;" parent="268" vertex="1">
                    <mxGeometry x="50" y="202" width="120" height="60" as="geometry"/>
                </mxCell>
                <mxCell id="264" style="edgeStyle=none;html=1;fontSize=12;" parent="268" source="259" target="260" edge="1">
                    <mxGeometry relative="1" as="geometry"/>
                </mxCell>
                <mxCell id="267" style="edgeStyle=none;html=1;entryX=1;entryY=0.5;entryDx=0;entryDy=0;fontSize=12;exitX=1;exitY=0.5;exitDx=0;exitDy=0;" parent="268" source="261" target="258" edge="1">
                    <mxGeometry relative="1" as="geometry">
                        <Array as="points">
                            <mxPoint x="210" y="320"/>
                            <mxPoint x="210" y="55"/>
                        </Array>
                    </mxGeometry>
                </mxCell>
                <mxCell id="261" value="根据执行列表执行变更文件操作" style="rounded=1;whiteSpace=wrap;html=1;shadow=0;glass=0;sketch=0;strokeColor=default;fontSize=12;fillColor=default;flipV=0;" parent="268" vertex="1">
                    <mxGeometry x="50" y="290" width="120" height="60" as="geometry"/>
                </mxCell>
                <mxCell id="265" style="edgeStyle=none;html=1;fontSize=12;" parent="268" source="260" target="261" edge="1">
                    <mxGeometry relative="1" as="geometry"/>
                </mxCell>
                <mxCell id="110" value="检查同步错误数量是否到达上限" style="rhombus;whiteSpace=wrap;html=1;" parent="dNxyNK7c78bLwvsdeMH5-21" vertex="1">
                    <mxGeometry x="690" y="40" width="90" height="65" as="geometry"/>
                </mxCell>
            </root>
        </mxGraphModel>
    </diagram>
</mxfile>